# xmcd
#
# Track frame offsets:
#	150
#	15916
#	30665
#	45383
#	63929
#	84012
#	99808
#	115485
#	131912
#	148753
#
# Disc length: 2210 seconds
#
# Revision: 1
# Processed by: cddbd v1.5.1PL2 Copyright (c) Steve Scherf et al.
# Submitted via: audiograbber 1.83.01
#
DISCID=7408a00a
DTITLE=SANDI CENOV - Popravi mi dan
DYEAR=2004
DGENRE=Pop
TTITLE0=Popravi mi dan
TTITLE1=Branka
TTITLE2=Ajde idi
TTITLE3=Svaku tvoju tajnu znam
TTITLE4=Naucila si me
TTITLE5=1 na 1
TTITLE6=Zestok momak
TTITLE7=Sve sto imam
TTITLE8=Kao nekada
TTITLE9=Za mene rodjena
EXTD=
EXTT0=
EXTT1=
EXTT2=
EXTT3=
EXTT4=
EXTT5=
EXTT6=
EXTT7=
EXTT8=
EXTT9=
PLAYORDER=
